<?xml version="1.0" standalone="no"?>
<!DOCTYPE svg PUBLIC "-//W3C//DTD SVG 20010904//EN" "http://www.w3.org/TR/2001/REC-SVG-20010904/DTD/svg10.dtd">
<!-- Created using Krita: https://krita.org -->
<svg xmlns="http://www.w3.org/2000/svg" 
    xmlns:xlink="http://www.w3.org/1999/xlink"
    xmlns:krita="http://krita.org/namespaces/svg/krita"
    xmlns:sodipodi="http://sodipodi.sourceforge.net/DTD/sodipodi-0.dtd"
    width="368.64pt"
    height="368.64pt"
    viewBox="0 0 368.64 368.64">
<defs/>
<rect id="shape0" fill="#09090b" fill-rule="evenodd" stroke-opacity="0" stroke="#000000" stroke-width="0" stroke-linecap="square" stroke-linejoin="bevel" width="368.64" height="368.64" rx="34.5600232185331" ry="34.5600232185331"/><g id="group0" transform="translate(19.681875, 289.675)" fill="none">
  <path id="shape1" fill="#96d3e3" stroke-opacity="0" stroke="#000000" stroke-width="0" stroke-linecap="square" stroke-linejoin="bevel" d="M148.477 -211.196L299.835 -211.196L299.835 -155.835L294.716 -155.835L271.035 -193.601L200.959 -193.601L200.959 -117.754L250.234 -117.754L268.155 -145.282L273.274 -145.282L273.274 -73.2825L268.155 -73.2825L250.234 -100.159L200.959 -100.159L200.959 -17.595L278.392 -17.595L303.671 -65.2837L308.79 -65.2837L308.79 0L125.123 0L125.123 -5.11875L152.64 -18.2362L152.64 -73.5975L85.1175 -73.5975L49.275 -16.3238L74.5537 -5.11875L74.5537 0L5.445 0L5.445 -5.11875L25.92 -16.3238L148.477 -211.196M95.9963 -91.2037L152.64 -91.2037L152.64 -182.396L95.9963 -91.2037" sodipodi:nodetypes="ccccccccccccccccccccccccccccccccccc"/>
 </g>
</svg>
